<svg width="42" height="42" viewBox="0 0 42 42" fill="none" xmlns="http://www.w3.org/2000/svg">
<path d="M15.3038 13.5082C15.1815 13.6302 15.0845 13.775 15.0184 13.9345C14.9522 14.0939 14.9182 14.2649 14.9182 14.4375C14.9182 14.6101 14.9522 14.7811 15.0184 14.9405C15.0845 15.1 15.1815 15.2448 15.3038 15.3667L20.9344 21L15.2985 26.6332C15.052 26.8793 14.9135 27.2133 14.9132 27.5616C14.9131 27.734 14.9469 27.9048 15.0128 28.0642C15.0787 28.2236 15.1753 28.3684 15.2972 28.4904C15.419 28.6125 15.5637 28.7093 15.723 28.7754C15.8823 28.8415 16.0531 28.8756 16.2255 28.8757C16.5738 28.876 16.9079 28.7378 17.1544 28.4917L22.7903 22.8559L28.4235 28.4917C28.67 28.7378 29.0041 28.876 29.3524 28.8757C29.7007 28.8755 30.0346 28.7369 30.2807 28.4904C30.5268 28.244 30.6649 27.9099 30.6647 27.5616C30.6644 27.2133 30.5258 26.8793 30.2794 26.6332L24.6488 21L30.282 15.3667C30.5285 15.1206 30.667 14.7867 30.6673 14.4384C30.6675 14.0901 30.5294 13.756 30.2833 13.5096C30.0372 13.2631 29.7033 13.1245 29.355 13.1243C29.0067 13.124 28.6726 13.2621 28.4261 13.5082L22.7929 19.1441L17.157 13.5082C16.9109 13.2622 16.5771 13.124 16.2291 13.124C15.881 13.124 15.5473 13.2622 15.3011 13.5082H15.3038Z" fill="black"/>
<path d="M35.9179 2.625C37.3103 2.625 38.6456 3.17812 39.6302 4.16269C40.6147 5.14726 41.1679 6.48261 41.1679 7.875V34.125C41.1679 35.5174 40.6147 36.8527 39.6302 37.8373C38.6456 38.8219 37.3103 39.375 35.9179 39.375H17.3329C16.5754 39.3753 15.8268 39.2117 15.1386 38.8955C14.4503 38.5792 13.8386 38.1177 13.3455 37.5428L0.632623 22.7062C0.224534 22.2304 0.000202179 21.6242 0.000202179 20.9974C0.000202179 20.3705 0.224534 19.7643 0.632623 19.2885L13.3455 4.4625C13.8381 3.88657 14.4496 3.42412 15.1379 3.10693C15.8262 2.78974 16.575 2.62533 17.3329 2.625H35.9179ZM17.3329 5.25C16.9537 5.24997 16.5791 5.33209 16.2347 5.49069C15.8903 5.64929 15.5843 5.88062 15.3379 6.16875L2.625 21L15.3405 35.8312C15.5867 36.119 15.8922 36.3502 16.2361 36.5088C16.58 36.6674 16.9542 36.7496 17.3329 36.75H35.9179C36.6141 36.75 37.2817 36.4734 37.774 35.9812C38.2663 35.4889 38.5429 34.8212 38.5429 34.125V7.875C38.5429 7.17881 38.2663 6.51113 37.774 6.01884C37.2817 5.52656 36.6141 5.25 35.9179 5.25H17.3329Z" fill="black"/>
</svg>
